<?xml version="1.0" standalone="no"?>
<!DOCTYPE svg PUBLIC "-//W3C//DTD SVG 20010904//EN"
 "http://www.w3.org/TR/2001/REC-SVG-20010904/DTD/svg10.dtd">
<svg version="1.0" xmlns="http://www.w3.org/2000/svg"
 width="800.000000pt" height="800.000000pt" viewBox="0 0 800.000000 800.000000"
 preserveAspectRatio="xMidYMid meet">
<metadata>
Created by potrace 1.15, written by Peter Selinger 2001-2017
</metadata>
<g transform="translate(0.000000,800.000000) scale(0.100000,-0.100000)"
fill="#000000" stroke="none">
<path d="M3685 7994 c-391 -40 -655 -94 -970 -200 -581 -194 -1100 -518 -1545
-964 -642 -641 -1028 -1431 -1147 -2345 -26 -201 -26 -769 0 -970 118 -909
503 -1699 1137 -2336 91 -91 208 -201 260 -244 619 -512 1302 -809 2095 -912
201 -26 769 -26 970 0 793 103 1478 401 2095 912 117 97 380 359 482 480 504
602 812 1309 915 2100 26 201 26 769 0 970 -63 482 -190 900 -402 1320 -202
400 -426 708 -754 1035 -627 625 -1406 1009 -2296 1131 -121 17 -214 21 -475
24 -179 1 -343 1 -365 -1z m-2540 -1598 c78 -33 152 -146 193 -296 45 -162 64
-314 87 -680 29 -474 64 -663 159 -855 104 -210 254 -341 493 -435 168 -66
147 -71 298 78 173 170 306 275 519 407 402 248 948 475 1371 569 239 53 314
61 590 61 278 0 370 -9 605 -61 222 -50 494 -141 730 -246 74 -33 141 -62 148
-65 6 -3 12 1 12 8 0 8 12 51 26 95 47 148 109 191 173 119 43 -49 63 -93 131
-276 32 -88 60 -162 62 -163 1 -1 61 -38 132 -81 123 -74 131 -77 143 -59 8
10 54 81 104 156 141 215 269 338 352 338 44 0 94 -53 116 -124 37 -120 43
-236 36 -643 l-8 -382 46 -93 c70 -142 89 -225 92 -400 2 -132 5 -153 26 -195
18 -38 23 -65 24 -128 0 -70 -4 -89 -33 -149 -58 -124 -257 -297 -455 -398
l-59 -29 18 -27 c96 -146 146 -270 148 -364 1 -78 -16 -109 -79 -142 -49 -25
-174 -33 -287 -17 -89 13 -326 71 -417 102 l-55 19 -66 -34 c-157 -81 -375
-153 -570 -187 -92 -16 -159 -20 -332 -19 l-217 0 9 -26 c33 -85 -11 -151
-124 -187 -64 -20 -90 -22 -266 -21 -202 1 -326 13 -605 60 -934 157 -1627
431 -2062 816 -356 315 -500 713 -397 1094 9 32 18 68 21 79 4 17 -13 27 -131
74 -363 143 -645 319 -846 527 -394 408 -546 1048 -385 1615 110 386 349 640
530 565z"/>
</g>
</svg>
